<svg xmlns="http://www.w3.org/2000/svg" viewBox="0 0 48 32" width="48" height="32">
  <rect width="48" height="32" rx="4" fill="#32BCAD"/>
  <g fill="#fff" transform="translate(14, 6) scale(0.8)">
    <path d="M19.5 10.5l-3.2-3.2c-.6-.6-1.4-.9-2.2-.9h-4.2c-.8 0-1.6.3-2.2.9l-3.2 3.2c-.6.6-.9 1.4-.9 2.2v4.2c0 .8.3 1.6.9 2.2l3.2 3.2c.6.6 1.4.9 2.2.9h4.2c.8 0 1.6-.3 2.2-.9l3.2-3.2c.6-.6.9-1.4.9-2.2v-4.2c0-.8-.3-1.6-.9-2.2zm-7.5 9.7c-2.1 0-3.8-1.7-3.8-3.8s1.7-3.8 3.8-3.8 3.8 1.7 3.8 3.8-1.7 3.8-3.8 3.8z"/>
    <path d="M12 14.3c-1.2 0-2.1.9-2.1 2.1s.9 2.1 2.1 2.1 2.1-.9 2.1-2.1-.9-2.1-2.1-2.1z"/>
  </g>
</svg>
