<svg xmlns="http://www.w3.org/2000/svg" viewBox="0 0 48 32" width="48" height="32">
  <rect width="48" height="32" rx="4" fill="#1A1F71"/>
  <path d="M19.5 21h-2.7l1.7-10.5h2.7L19.5 21zm-5.1 0h-2.8l-2.5-8.1-.3 1.6L7.9 21H5l4.2-10.5h2.8l3.4 10.5zm16.7-6.8c0-.9.7-1.5 2-1.5.9 0 1.6.2 2.1.5l.4-2.3c-.6-.2-1.4-.4-2.5-.4-2.7 0-4.6 1.4-4.6 3.5 0 1.5 1.4 2.4 2.4 2.9 1.1.5 1.4.9 1.4 1.4 0 .7-.8 1.1-1.6 1.1-1.1 0-1.7-.2-2.6-.6l-.4 2.3c.6.3 1.7.5 2.9.5 2.9 0 4.7-1.4 4.7-3.6 0-2.8-3.8-2.9-3.8-3.8h.1zm12.9-3.7h-2.1c-.7 0-1.2.2-1.5.8L36 21h2.9l.6-1.6h3.5l.3 1.6h2.5l-2.2-10.5h-2.6zm-2.5 6.8l1.5-4 .8 4h-2.3z" fill="#fff"/>
</svg>
